HIERARCHY
ROOT joint_Root
{
	OFFSET 0.0 0.0 0.0
	CHANNELS 6 Xposition Yposition Zposition Zrotation Xrotation Yrotation 
	JOINT Hips
	{
		OFFSET 4.5925 91.4895 -427.239
		CHANNELS 6 Xposition Yposition Zposition Zrotation Xrotation Yrotation 
		JOINT Spine
		{
			OFFSET 15.7357 0.0 0.0
			CHANNELS 6 Xposition Yposition Zposition Zrotation Xrotation Yrotation 
			JOINT Chest
			{
				OFFSET 8.98455 -0.406207 0.0
				CHANNELS 6 Xposition Yposition Zposition Zrotation Xrotation Yrotation 
				JOINT Neck
				{
					OFFSET 16.3773 0.0 0.0
					CHANNELS 6 Xposition Yposition Zposition Zrotation Xrotation Yrotation 
					JOINT Head
					{
						OFFSET 6.45672 0.0 0.0
						CHANNELS 6 Xposition Yposition Zposition Zrotation Xrotation Yrotation 
						End Site
						{
							OFFSET 0.0 0.0 0.0
						}
					}
				}
				JOINT Shoulder_L
				{
					OFFSET 12.9942 -0.242716 4.98039
					CHANNELS 6 Xposition Yposition Zposition Zrotation Xrotation Yrotation 
					JOINT UpperArm_L
					{
						OFFSET 5.34809 0.0 0.0
						CHANNELS 6 Xposition Yposition Zposition Zrotation Xrotation Yrotation 
						JOINT LowerArm_L
						{
							OFFSET 24.3286 1.87007e-05 0.0
							CHANNELS 6 Xposition Yposition Zposition Zrotation Xrotation Yrotation 
							JOINT Hand_L
							{
								OFFSET 22.2916 0.0 0.0
								CHANNELS 6 Xposition Yposition Zposition Zrotation Xrotation Yrotation 
								End Site
								{
									OFFSET 0.0 0.0 0.0
								}
							}
						}
					}
				}
				JOINT Shoulder_R
				{
					OFFSET 12.9945 -0.242716 -4.98039
					CHANNELS 6 Xposition Yposition Zposition Zrotation Xrotation Yrotation 
					JOINT UpperArm_R
					{
						OFFSET -5.34813 0.0 0.0
						CHANNELS 6 Xposition Yposition Zposition Zrotation Xrotation Yrotation 
						JOINT LowerArm_R
						{
							OFFSET -24.3289 0.000322201 0.0
							CHANNELS 6 Xposition Yposition Zposition Zrotation Xrotation Yrotation 
							JOINT Hand_R
							{
								OFFSET -22.2915 -0.000108084 0.0
								CHANNELS 6 Xposition Yposition Zposition Zrotation Xrotation Yrotation 
								End Site
								{
									OFFSET 0.0 0.0 0.0
								}
							}
						}
					}
				}
			}
		}
		JOINT UpperLeg_L
		{
			OFFSET -2.19248 -6.46944 0.0
			CHANNELS 6 Xposition Yposition Zposition Zrotation Xrotation Yrotation 
			JOINT LowerLeg_L
			{
				OFFSET 39.0811 0.0 -1.23785e-05
				CHANNELS 6 Xposition Yposition Zposition Zrotation Xrotation Yrotation 
				JOINT Foot_L
				{
					OFFSET 40.9854 0.0 -1.26872e-05
					CHANNELS 6 Xposition Yposition Zposition Zrotation Xrotation Yrotation 
					JOINT Toes_L
					{
						OFFSET 11.7543 0.0 0.0
						CHANNELS 6 Xposition Yposition Zposition Zrotation Xrotation Yrotation 
						End Site
						{
							OFFSET 0.0 0.0 0.0
						}
					}
				}
			}
		}
		JOINT UpperLeg_R
		{
			OFFSET -2.19251 6.46944 0.0
			CHANNELS 6 Xposition Yposition Zposition Zrotation Xrotation Yrotation 
			JOINT LowerLeg_R
			{
				OFFSET -39.0811 -0.00228153 -0.0401928
				CHANNELS 6 Xposition Yposition Zposition Zrotation Xrotation Yrotation 
				JOINT Foot_R
				{
					OFFSET -40.9854 0.0 0.0
					CHANNELS 6 Xposition Yposition Zposition Zrotation Xrotation Yrotation 
					JOINT Toes_R
					{
						OFFSET -11.7543 0.0 0.0
						CHANNELS 6 Xposition Yposition Zposition Zrotation Xrotation Yrotation 
						End Site
						{
							OFFSET 0.0 0.0 0.0
						}
					}
				}
			}
		}
	}
}
MOTION
Frames:	6
Frame Time:	0.0333333
0.000000 0.000000 0.000000 0.000000 0.000000 -0.000000 -2.672540 88.961000 -53.795900 88.335700 0.064554 -1.636950 15.735700 0.000005 -0.000001 66.871700 84.395000 -66.332900 8.984550 -0.406207 -0.000000 2.571050 -4.423920 1.176150 16.377300 -0.000001 -0.000001 -1.798490 -2.465050 0.149845 6.456720 -0.000001 -0.000000 -2.284140 -1.183570 1.707420 12.994200 -0.242716 4.980390 -90.537000 2.303140 -76.872300 5.348090 -0.000007 -0.000001 -62.836300 17.182100 -26.421000 24.328600 0.000019 0.000005 3.905560 0.614737 -81.069900 22.291600 -0.000001 0.000005 14.563300 5.477700 -5.660710 12.994500 -0.242716 -4.980390 88.171100 9.602130 -79.163300 -5.348130 -0.000001 -0.000004 -67.783500 23.519700 11.937200 -24.328900 0.000322 -0.000009 -15.623900 -2.521960 -81.056800 -22.291500 -0.000108 -0.000004 24.442600 5.630690 -13.389300 -2.192480 -6.469440 -0.000000 -174.037000 -7.481310 -7.557640 39.081100 -0.000007 -0.000012 0.079047 -0.059363 53.092500 40.985400 -0.000006 -0.000013 2.632790 1.684200 -57.495400 11.754300 -0.000000 0.000003 -0.095319 -0.432804 -34.618500 -2.192510 6.469440 -0.000001 -171.715000 20.161100 149.960000 -39.081100 -0.002282 -0.040193 -0.038956 0.061068 34.676300 -40.985400 0.000008 0.000006 7.050660 3.327020 -58.891500 -11.754300 -0.000006 -0.000006 -0.013357 -0.127214 -21.761000
0.000000 0.000000 0.000000 0.000000 0.000000 -0.000000 -3.132780 87.657500 -48.857400 88.779800 -0.334323 -0.114526 15.735700 0.000005 -0.000001 73.013200 84.045600 -72.546300 8.984550 -0.406207 -0.000000 3.643320 -3.491520 1.044010 16.377300 -0.000001 -0.000001 -1.941490 -2.574120 0.051346 6.456720 -0.000001 -0.000000 -2.326440 -1.628110 1.172490 12.994200 -0.242716 4.980390 -90.683200 2.936580 -76.897600 5.348090 -0.000007 -0.000001 -63.092300 18.872500 -22.846000 24.328600 0.000019 0.000005 5.653930 1.078870 -79.232900 22.291600 -0.000001 0.000005 13.964700 5.478330 -5.684850 12.994500 -0.242716 -4.980390 88.187300 10.045000 -79.715700 -5.348130 -0.000001 -0.000004 -64.568000 23.645700 6.575190 -24.328900 0.000322 -0.000009 -15.932200 -1.464600 -84.882100 -22.291500 -0.000108 -0.000004 24.963200 5.626050 -13.046100 -2.192480 -6.469440 -0.000000 -174.077000 -6.376660 -12.279000 39.081100 -0.000007 -0.000012 0.103806 -0.047571 65.377400 40.985400 -0.000006 -0.000013 3.592500 0.922373 -49.728700 11.754300 -0.000000 0.000003 -0.003977 -0.051209 -18.659800 -2.192510 6.469440 -0.000001 -174.141000 17.266400 151.061000 -39.081100 -0.002282 -0.040193 -0.309120 0.330183 43.414200 -40.985400 0.000008 0.000006 6.148910 0.554354 -66.302400 -11.754300 -0.000006 -0.000006 -0.004282 -0.054346 -18.783900
0.000000 0.000000 0.000000 0.000000 0.000000 -0.000000 -3.428920 86.530500 -44.432800 88.770600 -1.206030 0.557298 15.735700 0.000005 -0.000001 79.209900 83.768300 -78.675000 8.984550 -0.406207 -0.000000 4.491280 -2.344580 1.160690 16.377300 -0.000001 -0.000001 -2.235480 -2.580180 0.258229 6.456720 -0.000001 -0.000000 -2.636340 -1.887390 0.836930 12.994200 -0.242716 4.980390 -90.808000 3.533090 -77.109900 5.348090 -0.000007 -0.000001 -63.841800 20.075700 -18.089200 24.328600 0.000019 0.000005 5.750140 1.332520 -76.995500 22.291600 -0.000001 0.000005 13.747200 5.488370 -6.071950 12.994500 -0.242716 -4.980390 88.330500 10.338400 -80.775100 -5.348130 -0.000001 -0.000004 -60.473600 22.663100 -1.062470 -24.328900 0.000322 -0.000009 -16.264500 -0.463285 -88.411200 -22.291500 -0.000108 -0.000004 25.800700 5.619220 -12.567900 -2.192480 -6.469440 -0.000000 -174.347000 -6.193620 -16.731400 39.081100 -0.000007 -0.000012 0.089009 -0.025037 74.285500 40.985400 -0.000006 -0.000013 4.880960 -1.269210 -54.171200 11.754300 -0.000000 0.000003 -0.002805 -0.038383 -18.137700 -2.192510 6.469440 -0.000001 -174.870000 16.679300 152.433000 -39.081100 -0.002282 -0.040193 -0.333525 0.294154 48.865100 -40.985400 0.000008 0.000006 7.372370 -0.069342 -72.237400 -11.754300 -0.000006 -0.000006 -0.001382 -0.020695 -17.414600
0.000000 0.000000 0.000000 0.000000 0.000000 -0.000000 -3.717490 85.771900 -40.103700 88.929900 -1.088080 1.083590 15.735700 0.000005 -0.000001 82.060500 83.528500 -81.476900 8.984550 -0.406207 -0.000000 5.064400 -1.797890 1.245510 16.377300 -0.000001 -0.000001 -2.199590 -2.688270 0.459667 6.456720 -0.000001 -0.000000 -2.563920 -2.219950 0.530504 12.994200 -0.242716 4.980390 -91.013700 4.415820 -77.057900 5.348090 -0.000007 -0.000001 -64.239300 21.811100 -12.479000 24.328600 0.000019 0.000005 3.988570 1.136500 -74.119200 22.291600 -0.000001 0.000005 13.501500 5.492130 -6.219470 12.994500 -0.242716 -4.980390 88.415800 10.607000 -81.455200 -5.348130 -0.000001 -0.000004 -56.180800 20.785500 -9.823470 -24.328900 0.000322 -0.000009 -17.290600 0.220347 -90.706800 -22.291500 -0.000108 -0.000004 26.415600 5.615580 -12.323100 -2.192480 -6.469440 -0.000000 -174.836000 -5.953400 -21.526600 39.081100 -0.000007 -0.000012 0.064760 -0.012325 79.218100 40.985400 -0.000006 -0.000013 6.342510 -1.897060 -57.879600 11.754300 -0.000000 0.000003 -0.001986 -0.028543 -17.737400 -2.192510 6.469440 -0.000001 -175.832000 17.981800 154.972000 -39.081100 -0.002282 -0.040193 -0.238144 0.189639 51.846000 -40.985400 0.000008 0.000006 8.588050 0.120348 -77.211800 -11.754300 -0.000006 -0.000006 -0.096770 -0.116012 -16.502700
0.000000 0.000000 0.000000 0.000000 0.000000 -0.000000 -3.807520 85.572300 -35.934400 89.188500 -1.801080 1.025190 15.735700 0.000005 -0.000001 86.663500 83.475500 -86.123000 8.984550 -0.406207 -0.000000 5.265120 -0.769587 1.115180 16.377300 -0.000001 -0.000001 -2.148510 -2.684980 0.756385 6.456720 -0.000001 -0.000000 -2.590730 -2.638200 0.275748 12.994200 -0.242716 4.980390 -91.182700 4.949370 -76.542700 5.348090 -0.000007 -0.000001 -65.110600 23.653600 -6.093170 24.328600 0.000019 0.000005 3.883520 1.252880 -72.146700 22.291600 -0.000001 0.000005 13.375100 5.491070 -6.177600 12.994500 -0.242716 -4.980390 88.571900 10.449500 -82.173700 -5.348130 -0.000001 -0.000004 -53.245800 17.861100 -18.310100 -24.328900 0.000322 -0.000009 -17.695000 0.581142 -91.820000 -22.291500 -0.000108 -0.000004 26.798500 5.613850 -12.208100 -2.192480 -6.469440 -0.000000 -175.675000 -7.154640 -26.013700 39.081100 -0.000007 -0.000012 0.067718 -0.012803 79.287600 40.985400 -0.000006 -0.000013 6.193230 -1.293550 -61.531400 11.754300 -0.000000 0.000003 -0.002507 -0.034904 -17.996100 -2.192510 6.469440 -0.000001 -176.924000 18.492500 158.171000 -39.081100 -0.002282 -0.040193 -0.001618 0.003770 52.184700 -40.985400 0.000008 0.000006 9.810040 0.410507 -80.768200 -11.754300 -0.000006 -0.000006 -0.347064 -0.422131 -16.313500
0.000000 0.000000 0.000000 0.000000 0.000000 -0.000000 -3.706750 85.960400 -31.898900 89.641100 -2.749930 0.496014 15.735700 0.000005 -0.000001 91.575900 83.514100 -91.217400 8.984550 -0.406207 -0.000000 5.199990 0.347958 0.700312 16.377300 -0.000001 -0.000001 -2.269430 -2.657440 1.033080 6.456720 -0.000001 -0.000000 -2.696940 -3.169530 0.322408 12.994200 -0.242716 4.980390 -91.268600 5.034200 -75.837100 5.348090 -0.000007 -0.000001 -66.615600 25.161200 0.877604 24.328600 0.000019 0.000005 3.056480 1.019420 -71.572000 22.291600 -0.000001 0.000005 12.802200 5.492410 -6.230880 12.994500 -0.242716 -4.980390 88.810600 9.946840 -83.146600 -5.348130 -0.000001 -0.000004 -52.034700 14.457900 -25.275100 -24.328900 0.000322 -0.000009 -17.500900 0.726044 -92.300400 -22.291500 -0.000108 -0.000004 27.007800 5.614270 -12.235600 -2.192480 -6.469440 -0.000000 -177.245000 -8.722870 -29.885800 39.081100 -0.000007 -0.000012 0.060838 -0.016579 74.750500 40.985400 -0.000006 -0.000013 5.923470 -0.922456 -64.368500 11.754300 -0.000000 0.000003 -0.002585 -0.035821 -18.033500 -2.192510 6.469440 -0.000001 -178.576000 18.947100 161.764000 -39.081100 -0.002282 -0.040193 0.051397 -0.039930 50.332200 -40.985400 0.000008 0.000006 9.519130 1.856340 -82.308200 -11.754300 -0.000006 -0.000006 -0.736524 -0.910757 -16.607200
